<svg width="30" height="30" viewBox="0 0 30 30" fill="none" xmlns="http://www.w3.org/2000/svg">
<path d="M11.0299 15.07C11.1708 15.0175 11.3222 14.9903 11.4753 14.9898C11.6284 14.9893 11.7801 15.0156 11.9214 15.0672C12.0626 15.1188 12.1906 15.1945 12.2977 15.29C12.4049 15.3855 12.489 15.4988 12.5451 15.6231C12.6013 15.7475 12.6283 15.8804 12.6246 16.014C12.6209 16.1477 12.5865 16.2793 12.5235 16.4011C12.4605 16.523 12.3702 16.6325 12.2579 16.7234C12.1456 16.8142 12.0135 16.8845 11.8696 16.93C11.1039 17.1934 10.4467 17.6519 9.98358 18.2458C9.52045 18.8397 9.27279 19.5415 9.27282 20.26V22C9.27282 22.2652 9.39351 22.5196 9.60832 22.7071C9.82313 22.8946 10.1145 23 10.4183 23H19.5818C19.8856 23 20.177 22.8946 20.3918 22.7071C20.6066 22.5196 20.7273 22.2652 20.7273 22V20.353C20.7274 19.6115 20.4694 18.8874 19.9874 18.2768C19.5055 17.6662 18.8224 17.1979 18.0286 16.934C17.8838 16.8901 17.7505 16.8213 17.6367 16.7316C17.5228 16.6419 17.4308 16.5332 17.366 16.4119C17.3012 16.2905 17.265 16.1591 17.2594 16.0253C17.2539 15.8916 17.2792 15.7582 17.3338 15.6331C17.3884 15.508 17.4712 15.3938 17.5773 15.2972C17.6835 15.2006 17.8107 15.1235 17.9516 15.0706C18.0924 15.0177 18.244 14.9901 18.3973 14.9893C18.5507 14.9885 18.7026 15.0146 18.8442 15.066C20.0716 15.4742 21.1281 16.1983 21.8735 17.1425C22.6189 18.0867 23.0181 19.2063 23.0182 20.353V22C23.0182 22.7956 22.6561 23.5587 22.0117 24.1213C21.3673 24.6839 20.4932 25 19.5818 25H10.4183C9.5069 25 8.63285 24.6839 7.98841 24.1213C7.34398 23.5587 6.98193 22.7956 6.98193 22V20.26C6.98209 19.1402 7.36827 18.0463 8.09022 17.1206C8.81218 16.195 9.8365 15.4805 11.0299 15.07ZM15.0001 5C16.2152 5 17.3806 5.42143 18.2399 6.17157C19.0991 6.92172 19.5818 7.93913 19.5818 9V11C19.5818 12.0609 19.0991 13.0783 18.2399 13.8284C17.3806 14.5786 16.2152 15 15.0001 15C13.7849 15 12.6195 14.5786 11.7602 13.8284C10.901 13.0783 10.4183 12.0609 10.4183 11V9C10.4183 7.93913 10.901 6.92172 11.7602 6.17157C12.6195 5.42143 13.7849 5 15.0001 5ZM15.0001 7C14.3925 7 13.8098 7.21071 13.3801 7.58579C12.9505 7.96086 12.7092 8.46957 12.7092 9V11C12.7092 11.5304 12.9505 12.0391 13.3801 12.4142C13.8098 12.7893 14.3925 13 15.0001 13C15.6076 13 16.1903 12.7893 16.62 12.4142C17.0496 12.0391 17.2909 11.5304 17.2909 11V9C17.2909 8.46957 17.0496 7.96086 16.62 7.58579C16.1903 7.21071 15.6076 7 15.0001 7Z" fill="#181725"/>
</svg>
