<svg width="30" height="30" viewBox="0 0 30 30" fill="none" xmlns="http://www.w3.org/2000/svg">
<path d="M12 14.0815C12.53 14.4971 13.232 14.75 14 14.75H16C16.7381 14.7509 17.4505 14.5128 18 14.0815H12ZM12 14.0815C11.4505 14.5128 10.7381 14.7509 10 14.75L12 14.0815ZM11.05 9.5V9.45H11H8C7.72352 9.45 7.45724 9.54604 7.25997 9.71865C7.06249 9.89145 6.95 10.1274 6.95 10.375V12.125C6.95 12.3726 7.06249 12.6086 7.25997 12.7813C7.45724 12.954 7.72352 13.05 8 13.05H10C10.2765 13.05 10.5428 12.954 10.74 12.7813C10.9375 12.6086 11.05 12.3726 11.05 12.125V9.5ZM8.01 14.7H7.96V14.75V23.4694V23.5194H8.01H10H10.05V23.4694V19.125C10.05 18.6765 10.2536 18.2447 10.6187 17.9252C10.9841 17.6055 11.4808 17.425 12 17.425H14C14.5192 17.425 15.016 17.6055 15.3813 17.9252C15.7464 18.2447 15.95 18.6765 15.95 19.125V23.4694V23.5194H16H22.013H22.063V23.4694V14.75V14.7H22.013H20C19.2429 14.7 18.5518 14.4507 18.0309 14.0422L18 14.0179L17.9691 14.0422C17.429 14.4661 16.7277 14.7009 16.0001 14.7H16H14C13.2429 14.7 12.5518 14.4507 12.0309 14.0422L12 14.0179L11.9691 14.0422C11.429 14.4661 10.7277 14.7009 10.0001 14.7H10H8.01ZM6.00828 14.0253C5.7108 13.7881 5.47246 13.5003 5.30777 13.1799C5.13718 12.8479 5.04942 12.4884 5.05 12.1251V12.125V10.375C5.05 9.69439 5.35894 9.04005 5.91161 8.55647C6.46448 8.07271 7.21562 7.8 8 7.8H22C22.7844 7.8 23.5355 8.07271 24.0884 8.55647C24.6411 9.04005 24.95 9.69439 24.95 10.375V12.125C24.95 12.8795 24.5786 13.5605 23.982 14.0327L23.963 14.0477V14.0719V23.4694C23.963 23.9179 23.7594 24.3497 23.3943 24.6692C23.029 24.9889 22.5322 25.1694 22.013 25.1694H14.373V25.1687L14.3648 25.17C14.2446 25.1899 14.1224 25.2 14 25.2H12C11.8776 25.2 11.7554 25.1899 11.6352 25.17L11.6353 25.1694H11.627H8.011C7.49183 25.1694 6.99506 24.9889 6.62971 24.6692C6.26459 24.3497 6.061 23.9179 6.061 23.4694V14.0894V13.9792L6.00828 14.0253ZM14.05 19.125V19.075H14H12H11.95V19.125V23.4694V23.5194H12H14V23.4702H14.05V23.4694V23.4194V19.125ZM17.05 9.5V9.45H17H13H12.95V9.5V12.125C12.95 12.3726 13.0625 12.6086 13.26 12.7813C13.4572 12.954 13.7235 13.05 14 13.05H16C16.2765 13.05 16.5428 12.954 16.74 12.7813C16.9375 12.6086 17.05 12.3726 17.05 12.125V9.5ZM19 9.45H18.95V9.5V12.125C18.95 12.3726 19.0625 12.6086 19.26 12.7813C19.4572 12.954 19.7235 13.05 20 13.05H22C22.2765 13.05 22.5428 12.954 22.74 12.7813C22.9375 12.6086 23.05 12.3726 23.05 12.125V10.375C23.05 10.1274 22.9375 9.89145 22.74 9.71865C22.5428 9.54604 22.2765 9.45 22 9.45H19ZM19 17.425H20C20.254 17.425 20.4964 17.5133 20.6742 17.6689C20.8518 17.8243 20.95 18.0335 20.95 18.25V20.875C20.95 21.0915 20.8518 21.3007 20.6742 21.4561C20.4964 21.6117 20.254 21.7 20 21.7H19C18.7461 21.7 18.5036 21.6117 18.3258 21.4561C18.1482 21.3007 18.05 21.0915 18.05 20.875V18.25C18.05 18.0335 18.1482 17.8243 18.3258 17.6689C18.5036 17.5133 18.7461 17.425 19 17.425Z" fill="#181725" stroke="white" stroke-width="0.1"/>
</svg>
