<svg width="30" height="30" viewBox="0 0 30 30" fill="none" xmlns="http://www.w3.org/2000/svg">
<path d="M12.9088 23.7845C12.3829 23.7845 11.8786 23.5503 11.5068 23.1333C11.135 22.7164 10.9261 22.151 10.9261 21.5614C10.9261 20.9718 11.135 20.4064 11.5068 19.9895C11.8786 19.5726 12.3829 19.3383 12.9088 19.3383C13.4347 19.3383 13.939 19.5726 14.3108 19.9895C14.6826 20.4064 14.8915 20.9718 14.8915 21.5614C14.8915 22.151 14.6826 22.7164 14.3108 23.1333C13.939 23.5503 13.4347 23.7845 12.9088 23.7845ZM19.8483 23.7845C19.3225 23.7845 18.8182 23.5503 18.4463 23.1333C18.0745 22.7164 17.8656 22.151 17.8656 21.5614C17.8656 20.9718 18.0745 20.4064 18.4463 19.9895C18.8182 19.5726 19.3225 19.3383 19.8483 19.3383C20.3742 19.3383 20.8785 19.5726 21.2503 19.9895C21.6222 20.4064 21.8311 20.9718 21.8311 21.5614C21.8311 22.151 21.6222 22.7164 21.2503 23.1333C20.8785 23.5503 20.3742 23.7845 19.8483 23.7845ZM6.92295 8.13747C6.67546 8.12852 6.44079 8.012 6.26855 7.81255C6.0963 7.6131 6 7.34636 6 7.06874C6 6.79111 6.0963 6.52437 6.26855 6.32492C6.44079 6.12547 6.67546 6.00895 6.92295 6H8.06401C8.95822 6 9.73148 6.69582 9.92579 7.67396L11.168 13.9452C11.3623 14.9234 12.1355 15.6192 13.0297 15.6192H20.4769L21.9064 9.20565H12.6421C12.397 9.19311 12.1656 9.07509 11.996 8.87614C11.8265 8.67719 11.7319 8.41263 11.7319 8.13747C11.7319 7.86232 11.8265 7.59775 11.996 7.3988C12.1656 7.19985 12.397 7.08183 12.6421 7.06929H21.9064C22.1962 7.0692 22.4822 7.14318 22.7427 7.28563C23.0032 7.42808 23.2313 7.63524 23.4096 7.89136C23.588 8.14748 23.7119 8.44582 23.772 8.7637C23.832 9.08158 23.8267 9.41064 23.7563 9.72585L22.3268 16.1371C22.2237 16.5998 21.9856 17.0105 21.6504 17.3039C21.3152 17.5974 20.9021 17.7567 20.4769 17.7566H13.0297C12.1621 17.7568 11.3204 17.4251 10.6435 16.8164C9.96673 16.2077 9.49533 15.3584 9.30718 14.4087L8.06401 8.13747H6.92295Z" fill="#181725"/>
</svg>
