<svg width="30" height="30" viewBox="0 0 30 30" fill="none" xmlns="http://www.w3.org/2000/svg">
<path d="M19.8546 20.5719C20.4934 20.5719 21.126 20.4388 21.7163 20.1804C22.3065 19.9219 22.8428 19.5431 23.2945 19.0655C23.7463 18.588 24.1046 18.021 24.3491 17.3971C24.5936 16.7731 24.7194 16.1044 24.7194 15.429C24.7194 14.7536 24.5936 14.0849 24.3491 13.4609C24.1046 12.837 23.7463 12.27 23.2945 11.7925C22.8428 11.3149 22.3065 10.9361 21.7163 10.6776C21.126 10.4192 20.4934 10.2861 19.8546 10.2861C18.5643 10.2861 17.3269 10.828 16.4146 11.7925C15.5023 12.7569 14.9897 14.065 14.9897 15.429C14.9897 16.793 15.5023 18.1011 16.4146 19.0655C17.3269 20.03 18.5643 20.5719 19.8546 20.5719ZM24.9789 19.6341L27.8816 22.7027C27.959 22.7818 28.0207 22.8765 28.0631 22.9811C28.1055 23.0857 28.1278 23.1982 28.1287 23.312C28.1295 23.4258 28.109 23.5386 28.0681 23.644C28.0273 23.7493 27.967 23.8449 27.8908 23.9253C27.8146 24.0058 27.7241 24.0693 27.6244 24.1124C27.5247 24.1554 27.4179 24.177 27.3103 24.1759C27.2026 24.1749 27.0962 24.1511 26.9974 24.1061C26.8985 24.0611 26.809 23.9958 26.7343 23.9139L23.8316 20.8453C22.5282 21.9149 20.8882 22.4191 19.2455 22.2555C17.6027 22.0918 16.0807 21.2724 14.9893 19.9642C13.8979 18.656 13.3192 16.9572 13.3709 15.2138C13.4225 13.4703 14.1008 11.8132 15.2675 10.5798C16.4343 9.34643 18.0018 8.62943 19.651 8.57479C21.3002 8.52016 22.9071 9.132 24.1446 10.2858C25.3821 11.4395 26.1572 13.0485 26.312 14.7851C26.4669 16.5217 25.9899 18.2554 24.9781 19.6333L24.9789 19.6341Z" fill="#181725"/>
<rect x="5.14282" y="8.57143" width="7.17972" height="2.05648" rx="1.02824" fill="#181725"/>
<rect x="5.14282" y="14.947" width="5.2412" height="2.05648" rx="1.02824" fill="#181725"/>
<rect x="5.14282" y="21.323" width="7.17972" height="2.05648" rx="1.02824" fill="#181725"/>
</svg>
